<svg width="131" height="132" viewBox="0 0 131 132" fill="none" xmlns="http://www.w3.org/2000/svg">
<path d="M127.5 29V120C127.5 124.418 123.918 128 119.5 128H9.94268C7.74968 128 6.65143 125.349 8.20211 123.798L26.5 105.5M4 103V12C4 7.58172 7.58172 4 12 4L122.746 4C124.517 4 125.414 6.13245 124.175 7.39859L105 27M27 82.5V31C27 28.7909 28.7909 27 31 27H105M105 49.5V101.5C105 103.709 103.209 105.5 101 105.5H26.5M49.5 62V51.5C49.5 50.3954 50.3954 49.5 51.5 49.5H82.5M82.5 70V81C82.5 82.1046 81.6046 83 80.5 83H49M49 83L51.2308 80.7692L80.7692 51.2308L82.5 49.5M49 83L41.3846 90.6154L26.5 105.5M82.5 49.5L90.6154 41.3846L105 27" stroke="white" stroke-width="7" stroke-linejoin="round"/>
</svg>
